<svg class="lds-spinner" width="200px"  height="200px"  xmlns="http://www.w3.org/2000/svg" xmlns:xlink="http://www.w3.org/1999/xlink" viewBox="0 0 100 100" preserveAspectRatio="xMidYMid" style="background: none;"><g transform="rotate(0 50 50)">
  <rect x="46" y="28.5" rx="0" ry="0" width="8" height="3" fill="#9b1fa9">
    <animate attributeName="opacity" values="1;0" keyTimes="0;1" dur="0.6s" begin="-0.588s" repeatCount="indefinite"></animate>
  </rect>
</g><g transform="rotate(7.2 50 50)">
  <rect x="46" y="28.5" rx="0" ry="0" width="8" height="3" fill="#9b1fa9">
    <animate attributeName="opacity" values="1;0" keyTimes="0;1" dur="0.6s" begin="-0.576s" repeatCount="indefinite"></animate>
  </rect>
</g><g transform="rotate(14.4 50 50)">
  <rect x="46" y="28.5" rx="0" ry="0" width="8" height="3" fill="#9b1fa9">
    <animate attributeName="opacity" values="1;0" keyTimes="0;1" dur="0.6s" begin="-0.564s" repeatCount="indefinite"></animate>
  </rect>
</g><g transform="rotate(21.6 50 50)">
  <rect x="46" y="28.5" rx="0" ry="0" width="8" height="3" fill="#9b1fa9">
    <animate attributeName="opacity" values="1;0" keyTimes="0;1" dur="0.6s" begin="-0.5519999999999999s" repeatCount="indefinite"></animate>
  </rect>
</g><g transform="rotate(28.8 50 50)">
  <rect x="46" y="28.5" rx="0" ry="0" width="8" height="3" fill="#9b1fa9">
    <animate attributeName="opacity" values="1;0" keyTimes="0;1" dur="0.6s" begin="-0.54s" repeatCount="indefinite"></animate>
  </rect>
</g><g transform="rotate(36 50 50)">
  <rect x="46" y="28.5" rx="0" ry="0" width="8" height="3" fill="#9b1fa9">
    <animate attributeName="opacity" values="1;0" keyTimes="0;1" dur="0.6s" begin="-0.528s" repeatCount="indefinite"></animate>
  </rect>
</g><g transform="rotate(43.2 50 50)">
  <rect x="46" y="28.5" rx="0" ry="0" width="8" height="3" fill="#9b1fa9">
    <animate attributeName="opacity" values="1;0" keyTimes="0;1" dur="0.6s" begin="-0.516s" repeatCount="indefinite"></animate>
  </rect>
</g><g transform="rotate(50.4 50 50)">
  <rect x="46" y="28.5" rx="0" ry="0" width="8" height="3" fill="#9b1fa9">
    <animate attributeName="opacity" values="1;0" keyTimes="0;1" dur="0.6s" begin="-0.504s" repeatCount="indefinite"></animate>
  </rect>
</g><g transform="rotate(57.6 50 50)">
  <rect x="46" y="28.5" rx="0" ry="0" width="8" height="3" fill="#9b1fa9">
    <animate attributeName="opacity" values="1;0" keyTimes="0;1" dur="0.6s" begin="-0.49199999999999994s" repeatCount="indefinite"></animate>
  </rect>
</g><g transform="rotate(64.8 50 50)">
  <rect x="46" y="28.5" rx="0" ry="0" width="8" height="3" fill="#9b1fa9">
    <animate attributeName="opacity" values="1;0" keyTimes="0;1" dur="0.6s" begin="-0.48s" repeatCount="indefinite"></animate>
  </rect>
</g><g transform="rotate(72 50 50)">
  <rect x="46" y="28.5" rx="0" ry="0" width="8" height="3" fill="#9b1fa9">
    <animate attributeName="opacity" values="1;0" keyTimes="0;1" dur="0.6s" begin="-0.46799999999999997s" repeatCount="indefinite"></animate>
  </rect>
</g><g transform="rotate(79.2 50 50)">
  <rect x="46" y="28.5" rx="0" ry="0" width="8" height="3" fill="#9b1fa9">
    <animate attributeName="opacity" values="1;0" keyTimes="0;1" dur="0.6s" begin="-0.456s" repeatCount="indefinite"></animate>
  </rect>
</g><g transform="rotate(86.4 50 50)">
  <rect x="46" y="28.5" rx="0" ry="0" width="8" height="3" fill="#9b1fa9">
    <animate attributeName="opacity" values="1;0" keyTimes="0;1" dur="0.6s" begin="-0.444s" repeatCount="indefinite"></animate>
  </rect>
</g><g transform="rotate(93.6 50 50)">
  <rect x="46" y="28.5" rx="0" ry="0" width="8" height="3" fill="#9b1fa9">
    <animate attributeName="opacity" values="1;0" keyTimes="0;1" dur="0.6s" begin="-0.43199999999999994s" repeatCount="indefinite"></animate>
  </rect>
</g><g transform="rotate(100.8 50 50)">
  <rect x="46" y="28.5" rx="0" ry="0" width="8" height="3" fill="#9b1fa9">
    <animate attributeName="opacity" values="1;0" keyTimes="0;1" dur="0.6s" begin="-0.42s" repeatCount="indefinite"></animate>
  </rect>
</g><g transform="rotate(108 50 50)">
  <rect x="46" y="28.5" rx="0" ry="0" width="8" height="3" fill="#9b1fa9">
    <animate attributeName="opacity" values="1;0" keyTimes="0;1" dur="0.6s" begin="-0.408s" repeatCount="indefinite"></animate>
  </rect>
</g><g transform="rotate(115.2 50 50)">
  <rect x="46" y="28.5" rx="0" ry="0" width="8" height="3" fill="#9b1fa9">
    <animate attributeName="opacity" values="1;0" keyTimes="0;1" dur="0.6s" begin="-0.396s" repeatCount="indefinite"></animate>
  </rect>
</g><g transform="rotate(122.4 50 50)">
  <rect x="46" y="28.5" rx="0" ry="0" width="8" height="3" fill="#9b1fa9">
    <animate attributeName="opacity" values="1;0" keyTimes="0;1" dur="0.6s" begin="-0.384s" repeatCount="indefinite"></animate>
  </rect>
</g><g transform="rotate(129.6 50 50)">
  <rect x="46" y="28.5" rx="0" ry="0" width="8" height="3" fill="#9b1fa9">
    <animate attributeName="opacity" values="1;0" keyTimes="0;1" dur="0.6s" begin="-0.37199999999999994s" repeatCount="indefinite"></animate>
  </rect>
</g><g transform="rotate(136.8 50 50)">
  <rect x="46" y="28.5" rx="0" ry="0" width="8" height="3" fill="#9b1fa9">
    <animate attributeName="opacity" values="1;0" keyTimes="0;1" dur="0.6s" begin="-0.36s" repeatCount="indefinite"></animate>
  </rect>
</g><g transform="rotate(144 50 50)">
  <rect x="46" y="28.5" rx="0" ry="0" width="8" height="3" fill="#9b1fa9">
    <animate attributeName="opacity" values="1;0" keyTimes="0;1" dur="0.6s" begin="-0.348s" repeatCount="indefinite"></animate>
  </rect>
</g><g transform="rotate(151.2 50 50)">
  <rect x="46" y="28.5" rx="0" ry="0" width="8" height="3" fill="#9b1fa9">
    <animate attributeName="opacity" values="1;0" keyTimes="0;1" dur="0.6s" begin="-0.336s" repeatCount="indefinite"></animate>
  </rect>
</g><g transform="rotate(158.4 50 50)">
  <rect x="46" y="28.5" rx="0" ry="0" width="8" height="3" fill="#9b1fa9">
    <animate attributeName="opacity" values="1;0" keyTimes="0;1" dur="0.6s" begin="-0.324s" repeatCount="indefinite"></animate>
  </rect>
</g><g transform="rotate(165.6 50 50)">
  <rect x="46" y="28.5" rx="0" ry="0" width="8" height="3" fill="#9b1fa9">
    <animate attributeName="opacity" values="1;0" keyTimes="0;1" dur="0.6s" begin="-0.312s" repeatCount="indefinite"></animate>
  </rect>
</g><g transform="rotate(172.8 50 50)">
  <rect x="46" y="28.5" rx="0" ry="0" width="8" height="3" fill="#9b1fa9">
    <animate attributeName="opacity" values="1;0" keyTimes="0;1" dur="0.6s" begin="-0.3s" repeatCount="indefinite"></animate>
  </rect>
</g><g transform="rotate(180 50 50)">
  <rect x="46" y="28.5" rx="0" ry="0" width="8" height="3" fill="#9b1fa9">
    <animate attributeName="opacity" values="1;0" keyTimes="0;1" dur="0.6s" begin="-0.288s" repeatCount="indefinite"></animate>
  </rect>
</g><g transform="rotate(187.2 50 50)">
  <rect x="46" y="28.5" rx="0" ry="0" width="8" height="3" fill="#9b1fa9">
    <animate attributeName="opacity" values="1;0" keyTimes="0;1" dur="0.6s" begin="-0.27599999999999997s" repeatCount="indefinite"></animate>
  </rect>
</g><g transform="rotate(194.4 50 50)">
  <rect x="46" y="28.5" rx="0" ry="0" width="8" height="3" fill="#9b1fa9">
    <animate attributeName="opacity" values="1;0" keyTimes="0;1" dur="0.6s" begin="-0.264s" repeatCount="indefinite"></animate>
  </rect>
</g><g transform="rotate(201.6 50 50)">
  <rect x="46" y="28.5" rx="0" ry="0" width="8" height="3" fill="#9b1fa9">
    <animate attributeName="opacity" values="1;0" keyTimes="0;1" dur="0.6s" begin="-0.252s" repeatCount="indefinite"></animate>
  </rect>
</g><g transform="rotate(208.8 50 50)">
  <rect x="46" y="28.5" rx="0" ry="0" width="8" height="3" fill="#9b1fa9">
    <animate attributeName="opacity" values="1;0" keyTimes="0;1" dur="0.6s" begin="-0.24s" repeatCount="indefinite"></animate>
  </rect>
</g><g transform="rotate(216 50 50)">
  <rect x="46" y="28.5" rx="0" ry="0" width="8" height="3" fill="#9b1fa9">
    <animate attributeName="opacity" values="1;0" keyTimes="0;1" dur="0.6s" begin="-0.228s" repeatCount="indefinite"></animate>
  </rect>
</g><g transform="rotate(223.2 50 50)">
  <rect x="46" y="28.5" rx="0" ry="0" width="8" height="3" fill="#9b1fa9">
    <animate attributeName="opacity" values="1;0" keyTimes="0;1" dur="0.6s" begin="-0.21599999999999997s" repeatCount="indefinite"></animate>
  </rect>
</g><g transform="rotate(230.4 50 50)">
  <rect x="46" y="28.5" rx="0" ry="0" width="8" height="3" fill="#9b1fa9">
    <animate attributeName="opacity" values="1;0" keyTimes="0;1" dur="0.6s" begin="-0.204s" repeatCount="indefinite"></animate>
  </rect>
</g><g transform="rotate(237.6 50 50)">
  <rect x="46" y="28.5" rx="0" ry="0" width="8" height="3" fill="#9b1fa9">
    <animate attributeName="opacity" values="1;0" keyTimes="0;1" dur="0.6s" begin="-0.192s" repeatCount="indefinite"></animate>
  </rect>
</g><g transform="rotate(244.8 50 50)">
  <rect x="46" y="28.5" rx="0" ry="0" width="8" height="3" fill="#9b1fa9">
    <animate attributeName="opacity" values="1;0" keyTimes="0;1" dur="0.6s" begin="-0.18s" repeatCount="indefinite"></animate>
  </rect>
</g><g transform="rotate(252 50 50)">
  <rect x="46" y="28.5" rx="0" ry="0" width="8" height="3" fill="#9b1fa9">
    <animate attributeName="opacity" values="1;0" keyTimes="0;1" dur="0.6s" begin="-0.168s" repeatCount="indefinite"></animate>
  </rect>
</g><g transform="rotate(259.2 50 50)">
  <rect x="46" y="28.5" rx="0" ry="0" width="8" height="3" fill="#9b1fa9">
    <animate attributeName="opacity" values="1;0" keyTimes="0;1" dur="0.6s" begin="-0.156s" repeatCount="indefinite"></animate>
  </rect>
</g><g transform="rotate(266.4 50 50)">
  <rect x="46" y="28.5" rx="0" ry="0" width="8" height="3" fill="#9b1fa9">
    <animate attributeName="opacity" values="1;0" keyTimes="0;1" dur="0.6s" begin="-0.144s" repeatCount="indefinite"></animate>
  </rect>
</g><g transform="rotate(273.6 50 50)">
  <rect x="46" y="28.5" rx="0" ry="0" width="8" height="3" fill="#9b1fa9">
    <animate attributeName="opacity" values="1;0" keyTimes="0;1" dur="0.6s" begin="-0.132s" repeatCount="indefinite"></animate>
  </rect>
</g><g transform="rotate(280.8 50 50)">
  <rect x="46" y="28.5" rx="0" ry="0" width="8" height="3" fill="#9b1fa9">
    <animate attributeName="opacity" values="1;0" keyTimes="0;1" dur="0.6s" begin="-0.12s" repeatCount="indefinite"></animate>
  </rect>
</g><g transform="rotate(288 50 50)">
  <rect x="46" y="28.5" rx="0" ry="0" width="8" height="3" fill="#9b1fa9">
    <animate attributeName="opacity" values="1;0" keyTimes="0;1" dur="0.6s" begin="-0.10799999999999998s" repeatCount="indefinite"></animate>
  </rect>
</g><g transform="rotate(295.2 50 50)">
  <rect x="46" y="28.5" rx="0" ry="0" width="8" height="3" fill="#9b1fa9">
    <animate attributeName="opacity" values="1;0" keyTimes="0;1" dur="0.6s" begin="-0.096s" repeatCount="indefinite"></animate>
  </rect>
</g><g transform="rotate(302.4 50 50)">
  <rect x="46" y="28.5" rx="0" ry="0" width="8" height="3" fill="#9b1fa9">
    <animate attributeName="opacity" values="1;0" keyTimes="0;1" dur="0.6s" begin="-0.084s" repeatCount="indefinite"></animate>
  </rect>
</g><g transform="rotate(309.6 50 50)">
  <rect x="46" y="28.5" rx="0" ry="0" width="8" height="3" fill="#9b1fa9">
    <animate attributeName="opacity" values="1;0" keyTimes="0;1" dur="0.6s" begin="-0.072s" repeatCount="indefinite"></animate>
  </rect>
</g><g transform="rotate(316.8 50 50)">
  <rect x="46" y="28.5" rx="0" ry="0" width="8" height="3" fill="#9b1fa9">
    <animate attributeName="opacity" values="1;0" keyTimes="0;1" dur="0.6s" begin="-0.06s" repeatCount="indefinite"></animate>
  </rect>
</g><g transform="rotate(324 50 50)">
  <rect x="46" y="28.5" rx="0" ry="0" width="8" height="3" fill="#9b1fa9">
    <animate attributeName="opacity" values="1;0" keyTimes="0;1" dur="0.6s" begin="-0.048s" repeatCount="indefinite"></animate>
  </rect>
</g><g transform="rotate(331.2 50 50)">
  <rect x="46" y="28.5" rx="0" ry="0" width="8" height="3" fill="#9b1fa9">
    <animate attributeName="opacity" values="1;0" keyTimes="0;1" dur="0.6s" begin="-0.036s" repeatCount="indefinite"></animate>
  </rect>
</g><g transform="rotate(338.4 50 50)">
  <rect x="46" y="28.5" rx="0" ry="0" width="8" height="3" fill="#9b1fa9">
    <animate attributeName="opacity" values="1;0" keyTimes="0;1" dur="0.6s" begin="-0.024s" repeatCount="indefinite"></animate>
  </rect>
</g><g transform="rotate(345.6 50 50)">
  <rect x="46" y="28.5" rx="0" ry="0" width="8" height="3" fill="#9b1fa9">
    <animate attributeName="opacity" values="1;0" keyTimes="0;1" dur="0.6s" begin="-0.012s" repeatCount="indefinite"></animate>
  </rect>
</g><g transform="rotate(352.8 50 50)">
  <rect x="46" y="28.5" rx="0" ry="0" width="8" height="3" fill="#9b1fa9">
    <animate attributeName="opacity" values="1;0" keyTimes="0;1" dur="0.6s" begin="0s" repeatCount="indefinite"></animate>
  </rect>
</g></svg>